<?xml version="1.0" encoding="utf-8"?>
<!-- Generator: Adobe Illustrator 22.0.1, SVG Export Plug-In . SVG Version: 6.00 Build 0)  -->
<svg version="1.1" id="Layer_1" xmlns="http://www.w3.org/2000/svg" xmlns:xlink="http://www.w3.org/1999/xlink" x="0px" y="0px"
	 viewBox="0 0 512 512" style="enable-background:new 0 0 512 512;" xml:space="preserve">
<style type="text/css">
	.st0{fill:#FFC300;}
</style>
<g>
	<g>
		<path class="st0" d="M448.4,63.6V0h-31.7v72.8l-28.6,28.6c-42.7-37.4-96.8-57.8-154-57.8c-62.5,0-121.3,24.4-165.6,68.6
			C24.4,156.5,0,215.3,0,277.9s24.4,121.3,68.6,165.6c44.2,44.2,103,68.6,165.6,68.6s121.3-24.4,165.6-68.6
			c44.2-44.2,68.6-103,68.6-165.6c0-57.2-20.4-111.3-57.8-154l28.6-28.6H512l0,0V63.6L448.4,63.6L448.4,63.6z M436.6,277.9
			c0,111.6-90.8,202.5-202.5,202.5S31.7,389.5,31.7,277.9S122.5,75.4,234.1,75.4c50.1,0,96.1,18.3,131.5,48.6l-28.9,28.9
			c-27.9-23-63.7-36.8-102.6-36.8c-89.2,0-161.7,72.6-161.7,161.7S145,439.6,234.1,439.6S395.9,367,395.9,277.9
			c0-38.9-13.8-74.6-36.8-102.6l28.9-28.9C418.3,181.8,436.6,227.7,436.6,277.9z M245.3,289l38.1-38.1c4.4,8,6.9,17.2,6.9,26.9
			c0,31-25.2,56.2-56.2,56.2S178,308.8,178,277.9s25.2-56.2,56.2-56.2c9.7,0,18.9,2.5,26.9,6.9l-38.1,38.1L245.3,289z M284,205.6
			c-14.2-9.8-31.4-15.6-49.9-15.6c-48.4,0-87.8,39.4-87.8,87.8s39.4,87.8,87.8,87.8s87.8-39.4,87.8-87.8c0-18.5-5.8-35.7-15.6-49.9
			l30.2-30.2c17.3,22.1,27.6,49.9,27.6,80c0,71.7-58.3,130.1-130.1,130.1s-130.1-58.3-130.1-130.1s58.3-130.1,130.1-130.1
			c30.2,0,58,10.3,80,27.6L284,205.6z"/>
	</g>
</g>
</svg>
