<?xml version="1.0" encoding="utf-8"?>
<!-- Generator: Adobe Illustrator 22.0.1, SVG Export Plug-In . SVG Version: 6.00 Build 0)  -->
<svg version="1.1" id="Layer_1" xmlns="http://www.w3.org/2000/svg" xmlns:xlink="http://www.w3.org/1999/xlink" x="0px" y="0px"
	 viewBox="0 0 512 512" style="enable-background:new 0 0 512 512;" xml:space="preserve">
<style type="text/css">
	.st0{fill:#FFC300;}
</style>
<g>
	<g>
		<path class="st0" d="M353.2,248.2c25-65.3,11.2-142.2-41.3-194.7C277.4,19,231.5,0,182.7,0S88,19,53.5,53.5C19,88,0,133.9,0,182.7
			c0,48.8,19,94.7,53.5,129.2c35.6,35.6,82.4,53.4,129.2,53.4c22.2,0,44.5-4,65.5-12.1L407,512l105-105L353.2,248.2z M75.9,289.5
			C47.4,261,31.6,223,31.6,182.7s15.7-78.3,44.2-106.8c28.5-28.5,66.5-44.2,106.8-44.2S261,47.4,289.5,75.9
			c58.9,58.9,58.9,154.7,0,213.6C230.6,348.4,134.8,348.4,75.9,289.5z M278.2,338.4c12-7.4,23.3-16.2,33.7-26.6
			c10.4-10.4,19.2-21.7,26.6-33.7l23.3,23.3l-60.2,60.2L278.2,338.4z M323.9,384.1l60.2-60.2l83.1,83.1L407,467.2L323.9,384.1z"/>
	</g>
</g>
<g>
	<g>
		<path class="st0" d="M182.7,68.8c-62.8,0-113.9,51.1-113.9,113.9s51.1,113.9,113.9,113.9c19.6,0,38.9-5.1,55.9-14.7
			c19.7-11.1,35.6-27.7,45.8-47.9c8.1-16,12.2-33.2,12.2-51.3C296.5,119.9,245.5,68.8,182.7,68.8z M256.1,219.7
			c-7.4,14.6-18.8,26.6-33.1,34.6c-12.2,6.9-26.2,10.6-40.3,10.6c-45.3,0-82.2-36.9-82.2-82.2c0-45.3,36.9-82.2,82.2-82.2
			s82.2,36.9,82.2,82.2C264.9,195.7,261.9,208.2,256.1,219.7z"/>
	</g>
</g>
<g>
	<g>
		<path class="st0" d="M220.3,188.2c-1.4-3.2-3.4-6-6-8.2c-2.6-2.3-5.7-4.2-9.4-5.9c-3.7-1.7-7.7-3.2-12.3-4.6c-1-0.3-2-0.6-2.9-0.9
			c-0.9-0.3-1.8-0.6-2.6-0.8v-12.5c2.6,0.5,5.2,1.1,7.7,2c2.5,0.9,4.8,1.8,6.9,2.8c2.4,1.1,4.6,2.3,6.7,3.6l11.6-22.3
			c-1.9-0.9-4.1-1.9-6.4-3c-2.3-1.1-4.8-2.1-7.4-3.1c-2.6-1-5.4-1.8-8.2-2.6c-2.9-0.7-5.8-1.3-8.9-1.7v-14.1H178v14
			c-4.3,0.5-8.4,1.5-12.3,3.2c-3.8,1.7-7.2,3.9-10.1,6.7c-2.9,2.8-5.1,6.1-6.8,9.9c-1.7,3.8-2.5,8.2-2.5,13.2c0,3.6,0.5,6.8,1.5,9.6
			c1,2.8,2.5,5.2,4.5,7.4c2,2.2,4.6,4.1,7.8,5.8c3.1,1.7,6.9,3.3,11.2,4.8c2.9,1,5.7,1.9,8.6,2.6v12.2c-3.3-0.5-6.6-1.3-9.8-2.4
			c-3.2-1.2-6-2.3-8.4-3.5c-2.9-1.4-5.5-2.9-8-4.4l-11.6,23.7c5,3,10.6,5.4,16.9,7.3c6.3,1.9,12.6,3.2,19,3.7V248h11.1v-16.8
			c4.2-0.3,8.4-1,12.3-2.3s7.5-3.1,10.6-5.5c3.1-2.4,5.6-5.6,7.5-9.4c1.9-3.8,2.8-8.5,2.8-13.9C222.4,195.4,221.7,191.5,220.3,188.2
			z M180,165.5c-1.9-0.7-3.2-1.5-4.2-2.4c-0.9-0.9-1.4-2-1.4-3.4c0-2.7,1.8-4.2,5.5-4.7V165.5z M191.9,205.6
			c-0.9,0.7-2.5,1.2-4.7,1.4v-10.3c1.8,0.7,3.3,1.6,4.4,2.6s1.7,2.1,1.7,3.4C193.3,203.8,192.8,204.8,191.9,205.6z"/>
	</g>
</g>
</svg>
