<?xml version="1.0" encoding="utf-8"?>
<!-- Generator: Adobe Illustrator 22.0.1, SVG Export Plug-In . SVG Version: 6.00 Build 0)  -->
<svg version="1.1" id="Layer_1" xmlns="http://www.w3.org/2000/svg" xmlns:xlink="http://www.w3.org/1999/xlink" x="0px" y="0px"
	 viewBox="0 0 512 512" style="enable-background:new 0 0 512 512;" xml:space="preserve">
<style type="text/css">
	.st0{fill:#FFC300;}
</style>
<g>
	<g>
		<path class="st0" d="M375.7,146.8V38.9l-241.3,87.7H0v152.9h34.1l15.4,193.6h120.6l-14.8-186l220.5,80.2V259.3
			c25.8-5.8,45.1-28.8,45.1-56.3C420.8,175.6,401.5,152.5,375.7,146.8z M31.3,248.2V158h90.2v90.2H31.3z M78.5,441.8L65.6,279.5
			h57.7l12.9,162.3L78.5,441.8L78.5,441.8z M344.4,322.5l-191.5-69.6v-99.6l191.5-69.6V322.5z M375.7,226.2v-46.2
			c8.2,4.5,13.7,13.2,13.7,23.1C389.5,213,383.9,221.7,375.7,226.2z"/>
	</g>
</g>
<g>
	<g>
		<rect x="451.2" y="187.4" class="st0" width="60.8" height="31.3"/>
	</g>
</g>
<g>
	<g>
		
			<rect x="435.3" y="77.1" transform="matrix(0.9285 -0.3714 0.3714 0.9285 -1.1571 179.5973)" class="st0" width="60.8" height="31.3"/>
	</g>
</g>
<g>
	<g>
		
			<rect x="450" y="282.9" transform="matrix(0.3714 -0.9285 0.9285 0.3714 1.8451 629.3171)" class="st0" width="31.3" height="60.8"/>
	</g>
</g>
</svg>
