<?xml version="1.0" encoding="utf-8"?>
<!-- Generator: Adobe Illustrator 22.0.1, SVG Export Plug-In . SVG Version: 6.00 Build 0)  -->
<svg version="1.1" id="Layer_1" xmlns="http://www.w3.org/2000/svg" xmlns:xlink="http://www.w3.org/1999/xlink" x="0px" y="0px"
	 viewBox="0 0 512 512" style="enable-background:new 0 0 512 512;" xml:space="preserve">
<style type="text/css">
	.st0{fill:#FFC300;}
</style>
<g>
	<g>
		<path class="st0" d="M386.4,226V61.1H83.8v138.5H0v251.3h199V199.6h-83.8V92.5H355v133.4c-55,7.6-97.6,54.9-97.6,112
			c0,62.3,50.7,113,113,113c19.5,0,38.7-5,55.5-14.5c19.6-11.1,35.3-27.5,45.4-47.6c8-15.9,12.1-33,12.1-50.9
			C483.5,281,441.2,233.8,386.4,226z M31.4,231h52.4v73.3H31.4V231z M167.6,419.5H31.4v-83.8h136.1L167.6,419.5L167.6,419.5z
			 M167.6,231v73.3h-52.4V231H167.6z M443.4,374.6c-7.3,14.5-18.7,26.4-32.8,34.4c-12.2,6.9-26,10.5-40.1,10.5
			c-45,0-81.6-36.6-81.6-81.6c0-45,36.6-81.6,81.6-81.6s81.6,36.6,81.6,81.6C452.1,350.8,449.1,363.2,443.4,374.6z"/>
	</g>
</g>
<g>
	<g>
		<path class="st0" d="M407.8,343.4c-1.4-3.2-3.4-5.9-5.9-8.2c-2.6-2.2-5.7-4.2-9.3-5.8c-3.6-1.7-7.7-3.2-12.2-4.5
			c-1-0.3-2-0.6-2.9-0.9c-0.9-0.3-1.8-0.6-2.6-0.8v-12.4c2.6,0.5,5.1,1.1,7.6,2c2.5,0.9,4.8,1.8,6.8,2.8c2.4,1.1,4.6,2.3,6.6,3.6
			l11.6-22.2c-1.9-0.9-4-1.9-6.3-3c-2.3-1.1-4.7-2.1-7.4-3c-2.6-1-5.3-1.8-8.2-2.5c-2.8-0.7-5.8-1.3-8.8-1.7v-14h-11v13.9
			c-4.3,0.5-8.4,1.5-12.2,3.2c-3.8,1.7-7.1,3.9-10,6.6c-2.8,2.8-5.1,6-6.7,9.8c-1.7,3.8-2.5,8.2-2.5,13.1c0,3.6,0.5,6.7,1.4,9.5
			c1,2.8,2.5,5.2,4.5,7.4c2,2.2,4.6,4.1,7.7,5.8c3.1,1.7,6.8,3.3,11.1,4.7c2.8,1,5.7,1.9,8.5,2.6v12.1c-3.3-0.5-6.5-1.3-9.7-2.4
			c-3.2-1.1-5.9-2.3-8.3-3.5c-2.8-1.4-5.5-2.8-8-4.4l-11.6,23.5c5,2.9,10.6,5.4,16.8,7.3c6.2,1.9,12.5,3.2,18.9,3.7v16.9h11v-16.7
			c4.2-0.3,8.3-1,12.2-2.3c3.9-1.2,7.5-3.1,10.5-5.5c3.1-2.4,5.5-5.6,7.4-9.4c1.9-3.8,2.8-8.4,2.8-13.8
			C409.9,350.5,409.2,346.6,407.8,343.4z M367.8,320.8c-1.8-0.7-3.2-1.5-4.1-2.4c-0.9-0.9-1.4-2-1.4-3.4c0-2.7,1.8-4.2,5.5-4.7
			V320.8z M379.6,360.6c-0.9,0.7-2.5,1.2-4.7,1.4v-10.2c1.8,0.7,3.3,1.6,4.4,2.5s1.7,2.1,1.7,3.4C381,358.9,380.5,359.9,379.6,360.6
			z"/>
	</g>
</g>
<g>
	<g>
		
			<rect x="288" y="176.9" transform="matrix(0.9087 -0.4175 0.4175 0.9087 -52.6618 144.3679)" class="st0" width="31.4" height="31.3"/>
	</g>
</g>
<g>
	<g>
		
			<rect x="235" y="217.4" transform="matrix(0.6602 -0.7511 0.7511 0.6602 -89.5292 267.3232)" class="st0" width="31.4" height="30.3"/>
	</g>
</g>
<g>
	<g>
		
			<rect x="421.6" y="176.8" transform="matrix(0.4175 -0.9087 0.9087 0.4175 79.7315 509.4807)" class="st0" width="31.3" height="31.4"/>
	</g>
</g>
<g>
	<g>
		
			<rect x="475.1" y="216.9" transform="matrix(0.7511 -0.6602 0.6602 0.7511 -31.5436 381.5495)" class="st0" width="30.3" height="31.4"/>
	</g>
</g>
</svg>
