<?xml version="1.0" encoding="utf-8"?>
<!-- Generator: Adobe Illustrator 22.0.1, SVG Export Plug-In . SVG Version: 6.00 Build 0)  -->
<svg version="1.1" id="Layer_1" xmlns="http://www.w3.org/2000/svg" xmlns:xlink="http://www.w3.org/1999/xlink" x="0px" y="0px"
	 viewBox="0 0 512 512" style="enable-background:new 0 0 512 512;" xml:space="preserve">
<style type="text/css">
	.st0{fill:#FFC300;}
</style>
<g>
	<g>
		<polygon class="st0" points="213.6,249.8 192.6,316.7 185.6,296.3 201.6,249.8 177,249.8 168.4,279.9 159.9,249.8 135.3,249.8 
			151.1,296.3 144.4,316.7 123.2,249.8 94.2,249.8 132.4,347.3 154.7,347.3 168.4,312.4 182.3,347.3 204.5,347.3 242.7,249.8 		"/>
	</g>
</g>
<g>
	<g>
		<polygon class="st0" points="276.2,323.9 276.2,308.6 311.6,308.6 311.6,286.9 276.2,286.9 276.2,273.1 317.7,273.1 317.7,249.8 
			249.4,249.8 249.4,347.3 318.9,347.3 318.9,323.9 		"/>
	</g>
</g>
<g>
	<g>
		<path class="st0" d="M409.5,305.9c-3.3-4.1-7.7-6.9-13.3-8.6c4.7-2.1,8.2-5.2,10.5-9.4c2.3-4.2,3.5-8.5,3.5-13.1
			c0-3.1-0.5-6.2-1.6-9.1c-1.1-3-2.5-5.6-4.5-8c-1.9-2.3-4.3-4.2-7-5.7c-2.7-1.5-5.8-2.2-9.2-2.2h-56.6v97.5h47.9
			c4.8,0,9.3-0.5,13.5-1.4s8-2.4,11.2-4.5c3.2-2,5.7-4.6,7.6-7.8c1.8-3.2,2.7-6.9,2.7-11.3C414.3,315.4,412.7,310,409.5,305.9z
			 M377.3,272.6c1.7,0,3.2,0.6,4.5,1.7c1.3,1.1,1.9,3,1.9,5.7c0,3-0.8,5-2.3,6c-1.5,1-3.2,1.5-5,1.5h-18.3v-15L377.3,272.6
			L377.3,272.6z M384.9,322.7c-1.5,1.4-3.4,2.1-5.6,2.1h-21.1v-16.3h0h22.1c2,0,3.7,0.8,4.9,2.4c1.3,1.6,1.9,3.6,1.9,6
			C387.1,319.4,386.4,321.3,384.9,322.7z"/>
	</g>
</g>
<g>
	<g>
		<path class="st0" d="M0,57.5v397.1h512V57.5H0z M31.3,88.8h26.1v26.1h31.3V88.8h20.9v26.1h31.3V88.8H162v26.1h31.3V88.8h55.3
			L216,141.1H31.3V88.8z M480.7,423.2H31.3V172.4h449.3V423.2z M480.7,141.1H252.9l32.7-52.2h195.1V141.1z"/>
	</g>
</g>
</svg>
