<?xml version="1.0" encoding="utf-8"?>
<!-- Generator: Adobe Illustrator 22.0.1, SVG Export Plug-In . SVG Version: 6.00 Build 0)  -->
<svg version="1.1" id="Layer_1" xmlns="http://www.w3.org/2000/svg" xmlns:xlink="http://www.w3.org/1999/xlink" x="0px" y="0px"
	 viewBox="0 0 512 512" style="enable-background:new 0 0 512 512;" xml:space="preserve">
<style type="text/css">
	.st0{fill:#FFC300;}
</style>
<g>
	<g>
		<path class="st0" d="M477.7,393.5V118.8H321.4c-4.6-12.4-11.4-24.1-20-34.5L256,29.9l-45.4,54.5c-8.6,10.3-15.3,22-20,34.5H34.3
			v274.7H0v88.6h512v-88.6H477.7z M446.3,150.2v243.3h-60.9c-4.2-30.3-27-54.8-56.5-61.2V299h46.3l-46.3-77.2v-61.4
			c0-3.4-0.2-6.8-0.4-10.2L446.3,150.2L446.3,150.2z M214.5,230.4v-70c0-20.4,7.2-40.2,20.2-55.9L256,78.9l21.3,25.6
			c13.1,15.7,20.2,35.5,20.2,55.9v70l22.3,37.2h-37.4L256,302.9l-26.5-35.3h-37.4L214.5,230.4z M198.8,361.9h15.7v0v-62.1l41.5,55.4
			l41.5-55.4v62.1h15.7c19.5,0,35.9,13.5,40.3,31.6H158.4C162.9,375.4,179.3,361.9,198.8,361.9z M65.7,150.2h117.9
			c-0.3,3.4-0.4,6.8-0.4,10.2v61.4L136.8,299h46.3v33.3c-29.5,6.5-52.4,30.9-56.5,61.2H65.7V150.2z M480.7,450.7H31.3v-25.9h3h443.3
			h3L480.7,450.7L480.7,450.7z"/>
	</g>
</g>
<g>
	<g>
		<rect x="240.3" y="150.7" class="st0" width="31.3" height="31.3"/>
	</g>
</g>
</svg>
