<svg width="236" height="22" viewBox="0 0 236 22" version="1.1" xmlns="http://www.w3.org/2000/svg" xmlns:xlink="http://www.w3.org/1999/xlink">
<title>Group</title>
<desc>Created using Figma</desc>
<g id="Canvas" transform="translate(245 39)">
<g id="Group">
<g id="BOWMAN LABS">
<use xlink:href="#path0_fill" transform="translate(-210.298 -39)" fill="#FFFFFF"/>
<use xlink:href="#path1_fill" transform="translate(-210.298 -39)" fill="#FFFFFF"/>
<use xlink:href="#path2_fill" transform="translate(-210.298 -39)" fill="#FFFFFF"/>
<use xlink:href="#path3_fill" transform="translate(-210.298 -39)" fill="#FFFFFF"/>
<use xlink:href="#path4_fill" transform="translate(-210.298 -39)" fill="#FFFFFF"/>
<use xlink:href="#path5_fill" transform="translate(-210.298 -39)" fill="#FFFFFF"/>
<use xlink:href="#path6_fill" transform="translate(-210.298 -39)" fill="#FFFFFF"/>
<use xlink:href="#path7_fill" transform="translate(-210.298 -39)" fill="#FFFFFF"/>
<use xlink:href="#path8_fill" transform="translate(-210.298 -39)" fill="#FFFFFF"/>
<use xlink:href="#path9_fill" transform="translate(-210.298 -39)" fill="#FFFFFF"/>
</g>
<g id="Vector">
<use xlink:href="#path10_fill" transform="translate(-245 -38.9614)" fill="#FFFFFF"/>
</g>
</g>
</g>
<defs>
<path id="path0_fill" d="M 0.667763 21.2303C 0.474209 21.2303 0.309687 21.1705 0.174199 21.0509C 0.0580665 20.9114 0 20.7419 0 20.5426L 0 1.01666C 0 0.797383 0.0580665 0.62794 0.174199 0.508332C 0.309687 0.36879 0.474209 0.299019 0.667763 0.299019L 8.62285 0.299019C 10.6939 0.299019 12.252 0.807351 13.2972 1.82401C 14.3424 2.84068 14.865 4.17629 14.865 5.83086C 14.865 6.9472 14.6134 7.87416 14.1101 8.61174C 13.6262 9.34932 13.0456 9.88755 12.3681 10.2264C 13.1811 10.6451 13.8682 11.2929 14.4295 12.1701C 14.9908 13.0472 15.2714 14.0539 15.2714 15.1901C 15.2714 16.3065 15.0198 17.3231 14.5166 18.2401C 14.0327 19.1571 13.3069 19.8847 12.3391 20.423C 11.3713 20.9612 10.21 21.2303 8.85512 21.2303L 0.667763 21.2303ZM 8.18735 9.14997C 9.40675 9.14997 10.3358 8.86092 10.9745 8.28282C 11.6326 7.70472 11.9617 6.89736 11.9617 5.86077C 11.9617 4.8441 11.6423 4.06665 11.0036 3.52842C 10.3648 2.99019 9.4261 2.72107 8.18735 2.72107L 2.84525 2.72107L 2.84525 9.14997L 8.18735 9.14997ZM 8.47769 18.8083C 9.69708 18.8083 10.6455 18.4694 11.3229 17.7916C 12.0197 17.1138 12.3681 16.2467 12.3681 15.1901C 12.3681 14.0937 12.0197 13.2166 11.3229 12.5588C 10.6455 11.881 9.69708 11.5421 8.47769 11.5421L 2.84525 11.5421L 2.84525 18.8083L 8.47769 18.8083Z"/>
<path id="path1_fill" d="M 26.7096 21.5293C 24.174 21.5293 22.2095 20.8516 20.8159 19.496C 19.4416 18.1205 18.7158 16.0573 18.6384 13.3063C 18.619 12.7083 18.6094 11.8611 18.6094 10.7647C 18.6094 9.66827 18.619 8.83102 18.6384 8.25292C 18.7158 5.56175 19.4707 3.51845 20.903 2.12303C 22.3353 0.707678 24.2708 0 26.7096 0C 29.129 0 31.0549 0.707678 32.4872 2.12303C 33.9195 3.51845 34.6744 5.56175 34.7518 8.25292C 34.7905 9.40912 34.8099 10.2464 34.8099 10.7647C 34.8099 11.263 34.7905 12.1103 34.7518 13.3063C 34.6744 16.0573 33.9389 18.1205 32.5453 19.496C 31.171 20.8516 29.2258 21.5293 26.7096 21.5293ZM 26.7096 18.9877C 28.2387 18.9877 29.4581 18.5093 30.3678 17.5524C 31.2775 16.5955 31.7711 15.1303 31.8485 13.1568C 31.8872 11.9607 31.9065 11.1634 31.9065 10.7647C 31.9065 10.3261 31.8872 9.52873 31.8485 8.37252C 31.7711 6.399 31.2678 4.93381 30.3388 3.97695C 29.429 3.02009 28.2193 2.54166 26.7096 2.54166C 25.1805 2.54166 23.9515 3.02009 23.0224 3.97695C 22.1127 4.93381 21.6191 6.399 21.5417 8.37252C 21.5223 8.95063 21.5127 9.74801 21.5127 10.7647C 21.5127 11.7614 21.5223 12.5588 21.5417 13.1568C 21.6191 15.1303 22.1127 16.5955 23.0224 17.5524C 23.9515 18.5093 25.1805 18.9877 26.7096 18.9877Z"/>
<path id="path2_fill" d="M 42.2124 21.2303C 41.7092 21.2303 41.4092 20.9612 41.3124 20.423L 37.5671 1.22598C 37.5477 1.1263 37.5381 1.01666 37.5381 0.897056C 37.5381 0.73758 37.5961 0.598037 37.7123 0.47843C 37.8284 0.358823 37.9639 0.299019 38.1187 0.299019L 39.6285 0.299019C 40.0349 0.299019 40.2672 0.468463 40.3253 0.807351L 43.2866 16.2367L 46.4222 5.65145C 46.5964 5.17302 46.9061 4.93381 47.3513 4.93381L 48.4255 4.93381C 48.6771 4.93381 48.8707 5.00358 49.0062 5.14312C 49.161 5.28266 49.2675 5.45211 49.3255 5.65145L 52.4902 16.2367L 55.4225 0.807351C 55.4806 0.468463 55.7225 0.299019 56.1483 0.299019L 57.6581 0.299019C 57.8129 0.299019 57.9484 0.358823 58.0645 0.47843C 58.1807 0.598037 58.2387 0.73758 58.2387 0.897056L 58.2097 1.22598L 54.4644 20.423C 54.3483 20.9612 54.0483 21.2303 53.5644 21.2303L 52.4321 21.2303C 51.9288 21.2303 51.6095 20.9811 51.474 20.4828L 47.8739 9.09017L 44.3028 20.4828C 44.148 20.9811 43.8286 21.2303 43.3447 21.2303L 42.2124 21.2303Z"/>
<path id="path3_fill" d="M 62.7035 21.2303C 62.5099 21.2303 62.3454 21.1705 62.2099 21.0509C 62.0938 20.9114 62.0357 20.7419 62.0357 20.5426L 62.0357 1.01666C 62.0357 0.797383 62.0938 0.62794 62.2099 0.508332C 62.3454 0.36879 62.5099 0.299019 62.7035 0.299019L 64.1551 0.299019C 64.4648 0.299019 64.7164 0.458495 64.91 0.777449L 71.036 12.8578L 77.2201 0.777449C 77.2588 0.657841 77.3362 0.548201 77.4523 0.448528C 77.5878 0.348856 77.7523 0.299019 77.9459 0.299019L 79.3685 0.299019C 79.5814 0.299019 79.7459 0.36879 79.8621 0.508332C 79.9976 0.62794 80.0653 0.797383 80.0653 1.01666L 80.0653 20.5426C 80.0653 20.7419 79.9976 20.9114 79.8621 21.0509C 79.7266 21.1705 79.5621 21.2303 79.3685 21.2303L 77.9459 21.2303C 77.7523 21.2303 77.5878 21.1705 77.4523 21.0509C 77.3362 20.9114 77.2781 20.7419 77.2781 20.5426L 77.2781 5.83086L 72.4296 15.5789C 72.236 15.9975 71.9263 16.2068 71.5005 16.2068L 70.6005 16.2068C 70.1747 16.2068 69.865 15.9975 69.6714 15.5789L 64.7939 5.83086L 64.7939 20.5426C 64.7939 20.7419 64.7261 20.9114 64.5906 21.0509C 64.4745 21.1705 64.3197 21.2303 64.1261 21.2303L 62.7035 21.2303Z"/>
<path id="path4_fill" d="M 83.7219 21.2303C 83.5671 21.2303 83.4316 21.1705 83.3154 21.0509C 83.1993 20.9313 83.1412 20.7918 83.1412 20.6323C 83.1412 20.4728 83.1509 20.3632 83.1703 20.3034L 90.3705 0.95686C 90.5254 0.518299 90.835 0.299019 91.2996 0.299019L 93.2738 0.299019C 93.7383 0.299019 94.048 0.518299 94.2029 0.95686L 101.374 20.3034L 101.432 20.6323C 101.432 20.7918 101.374 20.9313 101.258 21.0509C 101.142 21.1705 101.006 21.2303 100.851 21.2303L 99.3708 21.2303C 99.1579 21.2303 98.9934 21.1805 98.8772 21.0808C 98.7611 20.9612 98.6837 20.8416 98.645 20.722L 97.0481 16.4759L 87.5253 16.4759L 85.9284 20.722C 85.8897 20.8416 85.8026 20.9612 85.6671 21.0808C 85.551 21.1805 85.3962 21.2303 85.2026 21.2303L 83.7219 21.2303ZM 96.2062 13.9044L 92.2867 3.28921L 88.3672 13.9044L 96.2062 13.9044Z"/>
<path id="path5_fill" d="M 105.204 21.2303C 105.011 21.2303 104.846 21.1705 104.711 21.0509C 104.594 20.9114 104.536 20.7419 104.536 20.5426L 104.536 1.01666C 104.536 0.797383 104.594 0.62794 104.711 0.508332C 104.846 0.36879 105.011 0.299019 105.204 0.299019L 106.54 0.299019C 106.888 0.299019 107.13 0.438561 107.266 0.717645L 116.905 15.9676L 116.905 1.01666C 116.905 0.797383 116.963 0.62794 117.079 0.508332C 117.214 0.36879 117.379 0.299019 117.572 0.299019L 118.966 0.299019C 119.179 0.299019 119.343 0.36879 119.459 0.508332C 119.595 0.62794 119.663 0.797383 119.663 1.01666L 119.663 20.5127C 119.663 20.712 119.595 20.8815 119.459 21.021C 119.343 21.1606 119.188 21.2303 118.995 21.2303L 117.601 21.2303C 117.311 21.2303 117.079 21.0908 116.905 20.8117L 107.295 5.71126L 107.295 20.5426C 107.295 20.7419 107.227 20.9114 107.091 21.0509C 106.956 21.1705 106.791 21.2303 106.598 21.2303L 105.204 21.2303Z"/>
<path id="path6_fill" d="M 132.508 21.2303C 132.314 21.2303 132.15 21.1705 132.014 21.0509C 131.898 20.9114 131.84 20.7419 131.84 20.5426L 131.84 0.986762C 131.84 0.787416 131.898 0.62794 132.014 0.508332C 132.15 0.36879 132.314 0.299019 132.508 0.299019L 134.047 0.299019C 134.24 0.299019 134.395 0.36879 134.511 0.508332C 134.647 0.62794 134.714 0.787416 134.714 0.986762L 134.714 18.6289L 144.353 18.6289C 144.566 18.6289 144.731 18.6986 144.847 18.8382C 144.982 18.9578 145.05 19.1272 145.05 19.3465L 145.05 20.5426C 145.05 20.7419 144.982 20.9114 144.847 21.0509C 144.711 21.1705 144.547 21.2303 144.353 21.2303L 132.508 21.2303Z"/>
<path id="path7_fill" d="M 146.835 21.2303C 146.68 21.2303 146.545 21.1705 146.429 21.0509C 146.312 20.9313 146.254 20.7918 146.254 20.6323C 146.254 20.4728 146.264 20.3632 146.283 20.3034L 153.484 0.95686C 153.638 0.518299 153.948 0.299019 154.413 0.299019L 156.387 0.299019C 156.851 0.299019 157.161 0.518299 157.316 0.95686L 164.487 20.3034L 164.545 20.6323C 164.545 20.7918 164.487 20.9313 164.371 21.0509C 164.255 21.1705 164.119 21.2303 163.965 21.2303L 162.484 21.2303C 162.271 21.2303 162.106 21.1805 161.99 21.0808C 161.874 20.9612 161.797 20.8416 161.758 20.722L 160.161 16.4759L 150.638 16.4759L 149.042 20.722C 149.003 20.8416 148.916 20.9612 148.78 21.0808C 148.664 21.1805 148.509 21.2303 148.316 21.2303L 146.835 21.2303ZM 159.319 13.9044L 155.4 3.28921L 151.48 13.9044L 159.319 13.9044Z"/>
<path id="path8_fill" d="M 168.317 21.2303C 168.124 21.2303 167.959 21.1705 167.824 21.0509C 167.708 20.9114 167.65 20.7419 167.65 20.5426L 167.65 1.01666C 167.65 0.797383 167.708 0.62794 167.824 0.508332C 167.959 0.36879 168.124 0.299019 168.317 0.299019L 176.272 0.299019C 178.343 0.299019 179.902 0.807351 180.947 1.82401C 181.992 2.84068 182.515 4.17629 182.515 5.83086C 182.515 6.9472 182.263 7.87416 181.76 8.61174C 181.276 9.34932 180.695 9.88755 180.018 10.2264C 180.831 10.6451 181.518 11.2929 182.079 12.1701C 182.64 13.0472 182.921 14.0539 182.921 15.1901C 182.921 16.3065 182.669 17.3231 182.166 18.2401C 181.682 19.1571 180.956 19.8847 179.989 20.423C 179.021 20.9612 177.86 21.2303 176.505 21.2303L 168.317 21.2303ZM 175.837 9.14997C 177.056 9.14997 177.985 8.86092 178.624 8.28282C 179.282 7.70472 179.611 6.89736 179.611 5.86077C 179.611 4.8441 179.292 4.06665 178.653 3.52842C 178.014 2.99019 177.076 2.72107 175.837 2.72107L 170.495 2.72107L 170.495 9.14997L 175.837 9.14997ZM 176.127 18.8083C 177.347 18.8083 178.295 18.4694 178.972 17.7916C 179.669 17.1138 180.018 16.2467 180.018 15.1901C 180.018 14.0937 179.669 13.2166 178.972 12.5588C 178.295 11.881 177.347 11.5421 176.127 11.5421L 170.495 11.5421L 170.495 18.8083L 176.127 18.8083Z"/>
<path id="path9_fill" d="M 193.575 21.5293C 191.969 21.5293 190.575 21.2702 189.394 20.7519C 188.233 20.2336 187.343 19.5558 186.723 18.7186C 186.104 17.8614 185.775 16.9444 185.736 15.9676C 185.736 15.8081 185.794 15.6686 185.91 15.549C 186.046 15.4094 186.201 15.3397 186.375 15.3397L 187.856 15.3397C 188.223 15.3397 188.475 15.539 188.611 15.9377C 188.785 16.7749 189.278 17.4926 190.091 18.0906C 190.924 18.6887 192.085 18.9877 193.575 18.9877C 195.182 18.9877 196.391 18.6986 197.204 18.1205C 198.017 17.5225 198.424 16.6952 198.424 15.6387C 198.424 14.9609 198.221 14.4127 197.814 13.9941C 197.427 13.5754 196.846 13.2067 196.072 12.8877C 195.298 12.5688 194.137 12.1701 192.588 11.6916C 191.078 11.2531 189.878 10.7846 188.988 10.2862C 188.098 9.78788 187.43 9.16991 186.985 8.43233C 186.54 7.69475 186.317 6.76779 186.317 5.65145C 186.317 4.57499 186.598 3.60816 187.159 2.75097C 187.74 1.89379 188.562 1.22598 189.627 0.747547C 190.691 0.249183 191.959 0 193.43 0C 194.94 0 196.237 0.279085 197.321 0.837253C 198.404 1.37549 199.227 2.06323 199.788 2.90048C 200.35 3.73773 200.65 4.57499 200.688 5.41224C 200.688 5.57171 200.63 5.71126 200.514 5.83086C 200.417 5.95047 200.272 6.01028 200.079 6.01028L 198.54 6.01028C 198.133 6.01028 197.882 5.8209 197.785 5.44214C 197.669 4.60489 197.214 3.91714 196.42 3.37891C 195.627 2.82074 194.63 2.54166 193.43 2.54166C 192.114 2.54166 191.078 2.80081 190.324 3.31911C 189.569 3.83741 189.191 4.60489 189.191 5.62155C 189.191 6.29933 189.365 6.85749 189.714 7.29606C 190.082 7.73462 190.633 8.12334 191.369 8.46223C 192.104 8.78118 193.178 9.14997 194.591 9.5686C 196.237 10.0271 197.533 10.5055 198.482 11.0039C 199.43 11.4823 200.137 12.0903 200.601 12.8279C 201.066 13.5455 201.298 14.4625 201.298 15.5789C 201.298 17.4328 200.601 18.888 199.208 19.9445C 197.814 21.0011 195.937 21.5293 193.575 21.5293Z"/>
<path id="path10_fill" d="M 21.1532 10.583L 19.2973 7.79937C 19.2699 7.77413 19.2345 7.76017 19.1977 7.76017C 19.1609 7.76017 19.1255 7.77413 19.0981 7.79937L 18.2386 8.41511C 18.2141 8.44333 18.2006 8.47987 18.2006 8.51774C 18.2006 8.5556 18.2141 8.59214 18.2386 8.62036L 19.1603 10.0571C 19.1733 10.0801 19.1802 10.1062 19.1804 10.1328C 19.1806 10.1594 19.1741 10.1856 19.1616 10.2089C 19.149 10.2321 19.1309 10.2517 19.1088 10.2655C 19.0868 10.2794 19.0616 10.2871 19.0358 10.288L 15.8472 10.288C 15.8097 10.2881 15.7734 10.2737 15.7457 10.2475C 15.718 10.2214 15.7009 10.1854 15.6978 10.1469C 15.5269 8.69193 15.0576 7.29102 14.3211 6.03706C 13.5845 4.78309 12.5976 3.70472 11.4256 2.87345C 9.29075 1.18995 6.72208 0.190629 4.03967 -4.28178e-08C 4.00003 -4.28178e-08 3.96201 0.0162181 3.93398 0.0450865C 3.90595 0.0739549 3.8902 0.113109 3.8902 0.153935L 3.8902 1.23148C 3.89007 1.27018 3.9041 1.30751 3.92949 1.33603C 3.95488 1.36456 3.98977 1.38219 4.02721 1.38541C 4.44536 1.3984 4.86185 1.44558 5.27274 1.52652C 5.29463 1.53184 5.31507 1.54218 5.33255 1.55678C 5.35002 1.57137 5.36407 1.58983 5.37365 1.6108C 5.38323 1.63176 5.38809 1.65468 5.38787 1.67785C 5.38765 1.70101 5.38235 1.72383 5.37238 1.7446L 0.166086 10.6215L 0.0166232 10.8909C 0.00569955 10.9127 -1.21752e-07 10.9369 -1.21752e-07 10.9615C -1.21752e-07 10.986 0.00569955 11.0102 0.0166232 11.032L 0.178541 11.327L 5.38483 20.2168C 5.39481 20.2376 5.4001 20.2604 5.40032 20.2835C 5.40054 20.3067 5.39568 20.3296 5.3861 20.3506C 5.37652 20.3716 5.36247 20.39 5.345 20.4046C 5.32753 20.4192 5.30708 20.4295 5.28519 20.4349C 4.8743 20.5158 4.45782 20.563 4.03967 20.576C 4.00222 20.5792 3.96733 20.5968 3.94194 20.6254C 3.91655 20.6539 3.90253 20.6912 3.90266 20.7299L 3.90266 21.8075C 3.90266 21.8483 3.91841 21.8874 3.94644 21.9163C 3.97447 21.9452 4.01248 21.9614 4.05212 21.9614C 6.73551 21.7534 9.30001 20.7362 11.4256 19.0366C 12.597 18.2048 13.5836 17.1262 14.32 15.8724C 15.0565 14.6185 15.5261 13.2179 15.6978 11.7632C 15.7009 11.7246 15.718 11.6887 15.7457 11.6626C 15.7734 11.6364 15.8097 11.622 15.8472 11.6221L 19.0482 11.6221C 19.0741 11.623 19.0992 11.6307 19.1213 11.6446C 19.1433 11.6584 19.1615 11.6779 19.174 11.7012C 19.1866 11.7244 19.1931 11.7507 19.1929 11.7773C 19.1926 11.8039 19.1857 11.83 19.1728 11.853L 18.1764 13.3154C 18.1519 13.3436 18.1383 13.3801 18.1383 13.418C 18.1383 13.4559 18.1519 13.4924 18.1764 13.5206L 19.0358 14.1364C 19.0632 14.1616 19.0987 14.1756 19.1354 14.1756C 19.1722 14.1756 19.2077 14.1616 19.2351 14.1364L 21.1532 11.3399L 21.3649 11.032C 21.3805 11.0071 21.3887 10.9782 21.3887 10.9486C 21.3887 10.9191 21.3805 10.8901 21.3649 10.8652L 21.1532 10.583ZM 14.3152 10.288L 2.09665 10.288C 2.07908 10.2882 2.06179 10.2835 2.04651 10.2746C 2.03124 10.2656 2.01854 10.2527 2.00968 10.2371C 2.00083 10.2214 1.99615 10.2037 1.99611 10.1856C 1.99607 10.1675 2.00068 10.1497 2.00946 10.1341L 6.8421 2.00115C 6.85862 1.98957 6.87815 1.98338 6.89814 1.98338C 6.91814 1.98338 6.93766 1.98957 6.95419 2.00115C 10.2922 3.18132 14.0163 6.09326 14.4273 10.2238C 14.419 10.2464 14.4031 10.2652 14.3826 10.277C 14.3621 10.2887 14.3383 10.2926 14.3152 10.288ZM 6.8421 19.9474L 2.03437 11.853C 2.02642 11.8346 2.02279 11.8145 2.02378 11.7944C 2.02476 11.7743 2.03033 11.7547 2.04003 11.7372C 2.04973 11.7197 2.0633 11.7048 2.07962 11.6937C 2.09595 11.6827 2.11458 11.6757 2.13401 11.6734L 14.2405 11.6734C 14.258 11.6733 14.2753 11.677 14.2912 11.6842C 14.3072 11.6915 14.3216 11.7021 14.3333 11.7154C 14.345 11.7287 14.3539 11.7444 14.3594 11.7615C 14.3649 11.7785 14.3668 11.7966 14.3651 11.8145C 13.954 15.9323 10.2424 18.8314 6.89192 20.0115C 6.86731 20.0148 6.84232 20.0105 6.82012 19.9991C 6.79793 19.9876 6.77956 19.9697 6.76736 19.9474L 6.8421 19.9474Z"/>
</defs>
</svg>
